# AST/ASF file generated using VICON BodyLanguage
# -----------------------------------------------
:version 1.10
:name VICON
:units
  mass 1.0
  length 0.45
  angle deg
:documentation
   .ast/.asf automatically generated from VICON data using
   VICON BodyBuilder and BodyLanguage model FoxedUp or BRILLIANT.MOD
:root
   order TX TY TZ RX RY RZ
   axis XYZ
   position 0 0 0  
   orientation 0 0 0 
:bonedata
  begin
     id 1 
     name lhipjoint
     direction 0.597014 -0.743513 0.301268 
     length 2.48253 
     axis 0 0 0  XYZ
  end
  begin
     id 2 
     name lfemur
     direction 0.34202 -0.939693 0  
     length 7.51389  
     axis 0 0 20  XYZ
    dof rx ry rz
    limits (-160.0 20.0)
           (-70.0 70.0)
           (-60.0 70.0)
  end
  begin
     id 3 
     name ltibia
     direction 0.34202 -0.939693 0   
     length 7.54147   
     axis 0 0 20   XYZ
    dof rx
    limits (-10.0 170.0)
  end
  begin
     id 4 
     name lfoot
     direction 0.10378 -0.285133 0.952853   
     length 2.2132   
     axis -90 7.62852e-016 20   XYZ
    dof rx rz
    limits (-45.0 90.0)
           (-70.0 20.0)
  end
  begin
     id 5 
     name ltoes
     direction 1.5354e-011 -4.2171e-011 1   
     length 1.10362   
     axis -90 7.62852e-016 20   XYZ
    dof rx
    limits (-90.0 20.0)
  end
  begin
     id 6 
     name rhipjoint
     direction -0.591912 -0.747009 0.302685   
     length 2.47092  
     axis 0 0 0  XYZ 
  end
  begin
     id 7 
     name rfemur
     direction -0.34202 -0.939693 0   
     length 7.69991   
     axis 0 0 -20   XYZ
    dof rx ry rz
    limits (-160.0 20.0)
           (-70.0 70.0)
           (-70.0 60.0)
  end
  begin
     id 8 
     name rtibia
     direction -0.34202 -0.939693 0   
     length 7.40774   
     axis 0 0 -20   XYZ
    dof rx
    limits (-10.0 170.0)
 end
 begin
     id 9 
     name rfoot
     direction -0.0916245 -0.251736 0.963449   
     length 2.08235  
     axis -90 -7.62852e-016 -20   XYZ
    dof rx rz
    limits (-45.0 90.0)
           (-20.0 70.0)
  end
  begin
     id 10 
     name rtoes
     direction -1.53527e-011 -4.21878e-011 1   
     length 1.04369   
     axis -90 -7.62852e-016 -20   XYZ
    dof rx
    limits (-90.0 20.0)
  end
  begin
     id 11 
     name lowerback
     direction -0.0122523 0.991496 -0.12956   
     length 2.10814   
     axis 0 0 0   XYZ
    dof rx ry rz
    limits (-20.0 45.0)
           (-30.0 30.0)
           (-30.0 30.0)
  end
  begin
     id 12 
     name upperback
     direction 0.012378 0.999784 -0.0167122   
     length 2.11728   
     axis 0 0 0   XYZ
    dof rx ry rz
    limits (-20.0 45.0)
           (-30.0 30.0)
           (-30.0 30.0)
  end
  begin
     id 13 
     name thorax
     direction 0.0187236 0.998893 0.0431542   
     length 2.15267   
     axis 0 0 0   XYZ
    dof rx ry rz
    limits (-20.0 45.0)
           (-30.0 30.0)
           (-30.0 30.0)
  end
  begin
     id 14 
     name lowerneck
     direction 0.0165467 0.987304 0.157979   
     length 1.72129   
     axis 0 0 0   XYZ
    dof rx ry rz
    limits (-20.0 45.0)
           (-30.0 30.0)
           (-30.0 30.0)
  end
  begin
     id 15 
     name upperneck
     direction -0.0560236 0.986819 -0.151818   
     length 1.75382   
     axis 0 0 0   XYZ
    dof rx ry rz
    limits (-20.0 45.0)
           (-30.0 30.0)
           (-30.0 30.0)
  end
  begin
     id 16
     name head
     direction -0.0173602 0.99745 -0.0692312  
     length 1.76328  
     axis 0 0 0   XYZ
    dof rx ry rz
    limits (-20.0 45.0)
           (-30.0 30.0)
           (-30.0 30.0)
  end
  begin
     id 17 
     name lclavicle
     direction 0.957734 0.271724 -0.094399  
     length 3.5782  
     axis 0 0 0   XYZ
    dof ry rz
    limits (-20.0 10.0)
           (0.0 20.0)
  end
  begin
     id 18 
     name lhumerus
     direction 1 -4.48963e-011 1.21581e-027   
     length 5.25525   
     axis 180 -30 -90   XYZ
    dof rx ry rz
    limits (-60.0 90.0)
           (-90.0 90.0)
           (-90.0 90.0)
  end
  begin
     id 19
     name lradius
     direction 1 -4.48975e-011 3.71216e-028   
     length 3.35106   
     axis 180 -30 -90   XYZ
    dof rx
    limits (-10.0 170.0)
  end
  begin
     id 20
     name lwrist
     direction 1 -4.48957e-011 4.76535e-027   
     length 1.67553   
     axis -3.27501e-015 90 90   XYZ
    dof ry
    limits (-180.0 0.0)
 end
  begin
     id 21 
     name lhand
     direction 1 -4.49008e-011 9.52727e-027   
     length 0.574153   
     axis -6.08097e-015 90 90   XYZ
    dof rx rz
    limits (-90.0 90.0)
           (-45.0 45.0)
  end
  begin
     id 22 
     name lfingers
     direction 1 -4.48996e-011 1.90562e-026   
     length 0.462897   
     axis -1.21618e-014 90 90   XYZ
    dof rx
    limits (0.0 90.0)
  end
  begin
     id 23
     name lthumb
     direction 0.707107 -6.34908e-011 0.707107   
     length 0.66463   
     axis -90 45 -1.62303e-014   XYZ
    dof rx rz
    limits (-45.0 45.0)
           (-45.0 45.0)
  end
  begin
     id 24 
     name rclavicle
     direction -0.950439 0.29623 -0.0944132   
     length 3.45861  
     axis 0 0 0   XYZ 
    dof ry rz
    limits (-10.0 20.0)
           (-20.0 0.0)
  end
  begin
     id 25 
     name rhumerus
     direction -1 -4.48986e-011 1.25473e-027  
     length 5.33104   
     axis 180 30 90   XYZ
    dof rx ry rz
    limits (-90.0 60.0)
           (-90.0 90.0)
           (-90.0 90.0)
  end
  begin
     id 26 
     name rradius
     direction -1 -4.4894e-011 1.66273e-027   
     length 3.39883   
     axis 180 30 90   XYZ
    dof rx
    limits (-10.0 170.0)
  end
  begin
     id 27 
     name rwrist
     direction -1 -4.48946e-011 4.76572e-027   
     length 1.69941   
     axis -3.27501e-015 -90 -90   XYZ
    dof ry
    limits (-180.0 0.0)
  end
  begin
     id 28
     name rhand
     direction -1 -4.49028e-011 9.52595e-027   
     length 0.913886   
     axis -6.08097e-015 -90 -90   XYZ
    dof rx rz
    limits (-90.0 90.0)
           (-45.0 45.0)
  end
  begin
     id 29
     name rfingers
     direction -1 -4.48945e-011 1.9063e-026   
     length 0.736798   
     axis -1.21618e-014 -90 -90   XYZ
    dof rx
    limits (0.0 90.0)
  end
  begin
     id 30
     name rthumb
     direction -0.707107 -6.34966e-011 0.707107   
     length 1.0579   
     axis -90 -45 1.62303e-014   XYZ
    dof rx rz
    limits (-45.0 45.0)
           (-45.0 45.0)
  end
:hierarchy
  begin
    root lhipjoint rhipjoint lowerback
    lhipjoint lfemur
    lfemur ltibia
    ltibia lfoot
    lfoot ltoes
    rhipjoint rfemur
    rfemur rtibia
    rtibia rfoot
    rfoot rtoes
    lowerback upperback
    upperback thorax
    thorax lowerneck lclavicle rclavicle
    lowerneck upperneck
    upperneck head
    lclavicle lhumerus
    lhumerus lradius
    lradius lwrist
    lwrist lhand lthumb
    lhand lfingers
    rclavicle rhumerus
    rhumerus rradius
    rradius rwrist
    rwrist rhand rthumb
    rhand rfingers
  end

#!OML:ASF F:\VICON\USERDATA\INSTALL\rory3\rory3.ASF
:FULLY-SPECIFIED
:DEGREES
761
root -4.31804 17.2846 39.0786 180.704 31.4222 -178.688
lowerback 20.2466 -2.54139 -9.93518
upperback 7.02073 -4.35861 -1.15737
thorax -2.90432 -1.86162 5.29525
lowerneck -13.3017 -3.48701 4.66631
upperneck 30.9392 -5.19177 1.07228
head 12.3359 -1.12421 -1.02641
rclavicle -1.19271e-014 1.59028e-014
rhumerus -42.548 -13.492 -76.6433
rradius 34.6615
rwrist 6.83767
rhand -5.60379 5.22093
rfingers 7.12502
rthumb 20.2132 -23.7474
lclavicle -1.19271e-014 1.59028e-014
lhumerus -22.1112 4.99963 78.4876
lradius 44.3725
lwrist 11.3601
lhand -18.6772 30.1067
lfingers 7.12502
lthumb 7.61672 59.9496
rfemur -32.5768 -4.51116 1.26087
rtibia 35.6903
rfoot -1.84635 -14.828
rtoes 5.56017
lfemur -11.5864 8.37304 -16.6254
ltibia 39.5696
lfoot -24.8936 -10.0755
ltoes -17.5233
762
root -4.17245 17.2777 39.0321 181.111 31.0455 -178.796
lowerback 20.1329 -2.58383 -9.8049
upperback 6.98903 -4.38614 -1.29389
thorax -2.90112 -1.87109 5.07555
lowerneck -13.7876 -3.56676 4.65409
upperneck 31.1932 -5.32611 0.991304
head 12.5359 -1.18179 -1.08641
rclavicle 4.29375e-014 -1.74931e-014
rhumerus -41.6957 -12.0455 -77.8752
rradius 36.4807
rwrist 6.86511
rhand -6.84181 5.93362
rfingers 7.12502
rthumb 19.023 -23.1561
lclavicle 4.29375e-014 -1.74931e-014
lhumerus -22.0992 3.98463 79.6779
lradius 44.364
lwrist 10.7385
lhand -19.022 29.9824
lfingers 7.12502
lthumb 7.28387 59.8371
rfemur -32.5055 -4.64708 1.6044
rtibia 35.4456
rfoot -2.18337 -14.5627
rtoes 4.75981
lfemur -11.7464 7.73535 -16.4759
ltibia 39.4734
lfoot -24.5251 -9.74015
ltoes -16.5304
763
root -4.02289 17.2764 38.9593 181.351 30.9026 -178.919
lowerback 19.8695 -2.62108 -9.41187
upperback 7.0433 -4.33229 -1.57337
thorax -2.77667 -1.84036 4.5289
lowerneck -13.3206 -3.56327 4.62314
upperneck 30.6331 -5.37183 1.28371
head 12.2228 -1.20188 -0.963897
rclavicle 0 -3.18055e-015
rhumerus -40.7027 -11.04 -78.9049
rradius 37.7461
rwrist 7.02315
rhand -8.00913 6.50222
rfingers 7.12502
rthumb 17.9001 -22.694
lclavicle 0 -3.18055e-015
lhumerus -21.9284 2.93616 80.7802
lradius 44.0147
lwrist 10.4663
lhand -20.6477 28.7564
lfingers 7.12502
lthumb 5.71449 58.6593
rfemur -32.3307 -4.98654 2.07007
rtibia 35.1044
rfoot -2.35651 -14.2881
rtoes 1.42826
lfemur -11.4939 6.88546 -16.4496
ltibia 39.2969
lfoot -24.5793 -8.34159
ltoes -17.7589
764
root -3.86903 17.2749 38.8982 181.629 30.779 -178.868
lowerback 19.7176 -2.69029 -8.82685
upperback 7.11757 -4.2926 -1.83895
thorax -2.70143 -1.81025 3.90109
lowerneck -13.147 -3.57095 4.68074
upperneck 30.3596 -5.43269 1.43379
head 12.0808 -1.2197 -0.920788
rclavicle -7.31528e-014 -4.29375e-014
rhumerus -39.6104 -9.99698 -79.8827
rradius 38.9961
rwrist 6.42136
rhand -8.72598 6.68209
rfingers 7.12502
rthumb 17.2102 -22.5758
lclavicle -7.31528e-014 -4.29375e-014
lhumerus -21.5301 2.08046 81.6954
lradius 43.3484
lwrist 9.92717
lhand -20.3809 27.8953
lfingers 7.12502
lthumb 5.97209 57.7912
rfemur -32.1812 -5.55599 2.78808
rtibia 34.6346
rfoot -2.95959 -14.1124
rtoes 0.552609
lfemur -11.2106 6.23369 -16.2196
ltibia 39.117
lfoot -24.4811 -6.84932
ltoes -19.7503
765
root -3.71991 17.2671 38.8064 181.786 31.3279 -179.12
lowerback 19.1975 -2.62814 -8.53777
upperback 7.20483 -4.10891 -2.02338
thorax -2.40316 -1.73018 3.47799
lowerneck -13.0792 -3.50497 4.53481
upperneck 30.1767 -5.25141 1.25269
head 11.9921 -1.19525 -0.937902
rclavicle 3.18055e-015 1.59028e-015
rhumerus -38.391 -8.84264 -80.355
rradius 39.9765
rwrist 5.73728
rhand -9.48118 7.29628
rfingers 7.12502
rthumb 16.4832 -22.0235
lclavicle 3.18055e-015 1.59028e-015
lhumerus -21.307 2.05682 82.8628
lradius 42.7425
lwrist 8.73274
lhand -19.322 25.998
lfingers 7.12502
lthumb 6.99436 55.8625
rfemur -32.3114 -6.01849 3.27582
rtibia 34.0408
rfoot -3.73815 -13.8597
rtoes 0.330593
lfemur -10.7958 5.66882 -16.4241
ltibia 38.9428
lfoot -24.4525 -5.07649
ltoes -20.3269
